<?xml version="1.0" standalone="no"?>
<!DOCTYPE svg PUBLIC "-//W3C//DTD SVG 20010904//EN"
 "http://www.w3.org/TR/2001/REC-SVG-20010904/DTD/svg10.dtd">
<svg version="1.0" xmlns="http://www.w3.org/2000/svg"
 width="77.000000pt" height="77.000000pt" viewBox="0 0 77.000000 77.000000"
 preserveAspectRatio="xMidYMid meet">
<metadata>
Created by potrace 1.14, written by Peter Selinger 2001-2017
</metadata>
<g transform="translate(0.000000,77.000000) scale(0.100000,-0.100000)"
fill="#000000" stroke="none">
<path d="M45 760 c-3 -5 15 -66 39 -137 111 -321 205 -590 211 -606 6 -14 20
-17 89 -17 l81 0 127 368 c70 202 129 374 130 382 3 12 -12 15 -81 15 l-84 0
-18 -55 c-19 -59 -40 -131 -110 -362 -24 -81 -46 -144 -50 -140 -3 4 -29 88
-58 187 -29 99 -56 191 -61 205 -5 14 -18 57 -29 96 l-21 71 -80 0 c-44 1 -82
-3 -85 -7z"/>
</g>
</svg>
